<?xml version="1.0" standalone="no"?>
<!DOCTYPE svg PUBLIC "-//W3C//DTD SVG 20010904//EN"
 "http://www.w3.org/TR/2001/REC-SVG-20010904/DTD/svg10.dtd">
<svg version="1.0" xmlns="http://www.w3.org/2000/svg"
 width="280.000000pt" height="280.000000pt" viewBox="0 0 280.000000 280.000000"
 preserveAspectRatio="xMidYMid meet">
<metadata>
Created by potrace 1.11, written by Peter Selinger 2001-2013
</metadata>
<g transform="translate(0.000000,280.000000) scale(0.100000,-0.100000)"
fill="#000000" stroke="none">
<path d="M1340 2612 c-67 -44 -191 -146 -241 -198 -68 -72 -108 -127 -198
-274 l-69 -114 81 -21 c105 -27 247 -85 365 -147 l93 -48 107 59 c162 91 320
149 413 153 34 1 39 4 39 26 0 38 -56 145 -120 230 -59 79 -185 206 -237 239
-15 9 -30 20 -33 24 -8 10 -133 76 -155 82 -11 3 -31 -2 -45 -11z"/>
<path d="M2029 1888 c-128 -29 -183 -45 -249 -70 -173 -68 -376 -190 -545
-328 -108 -89 -94 -76 -199 -179 l-85 -84 71 -44 c148 -91 226 -151 330 -251
l57 -56 23 30 c52 66 166 179 234 229 188 142 431 218 668 208 l73 -3 -3 58
c-10 164 -56 321 -128 432 l-46 71 -83 -2 c-46 -2 -99 -7 -118 -11z"/>
<path d="M521 1827 c-48 -107 -153 -468 -140 -481 2 -2 45 -5 94 -7 100 -3
184 -19 262 -50 l52 -21 68 73 c114 125 282 288 324 316 21 14 39 30 39 36 0
14 -48 53 -105 86 -56 32 -195 78 -258 86 -23 3 -53 7 -67 10 -14 3 -73 8
-132 12 l-108 6 -29 -66z"/>
<path d="M2327 1194 c-1 -1 -24 -5 -52 -8 -188 -20 -433 -108 -580 -207 -88
-60 -205 -196 -205 -239 0 -7 17 -33 38 -59 21 -25 47 -62 59 -82 49 -86 78
-197 82 -316 1 -34 4 -41 19 -39 9 2 36 7 60 11 71 12 161 53 262 120 219 146
394 366 469 590 31 92 51 224 35 226 -18 3 -185 5 -187 3z"/>
<path d="M296 1172 c-12 -35 -4 -133 16 -205 35 -130 123 -270 250 -398 77
-78 191 -172 233 -191 14 -6 25 -14 25 -18 0 -16 246 -123 337 -146 98 -25
271 -42 317 -30 l24 6 -35 117 c-124 414 -259 620 -493 751 -54 30 -205 85
-265 97 -105 19 -144 24 -281 31 -118 7 -122 6 -128 -14z"/>
</g>
</svg>
